<?xml version="1.0" encoding="UTF-8"?>
<!--
✒ Metadata
    - Title: Linux Scatter Field (digiSpace Edition - v1.0)
    - File Name: linux_scatter_field.svg
    - Relative Path: assets/svg/linux_scatter_field.svg
    - Artifact Type: other
    - Version: 1.0.0
    - Date: 2026-07-19
    - Update: Sunday, July 19, 2026
    - Author: Dennis 'dendogg' Smaltz
    - A.I. Acknowledgement: Anthropic - Claude Fable 5
    - Signature: ︻デ═─── ✦ ✦ ✦ | Aim Twice, Shoot Once!

✒ Description:
    A 1920x1080 dark wallpaper/backdrop of faint, scattered Linux and terminal
    ephemera - line-art icons (tux, folders, gears, servers, chip, globe, lock,
    database) interleaved with monospace shell fragments (apt, ls -la, grep,
    uname, systemctl, a filesystem tree). Watermark-subtle by design; sits
    behind UI or content without competing with it.

✒ Key Features:
    - 70+ hand-placed elements across a 1920x1080 field with jittered rotation for a natural scatter
    - ~20 reusable line-art symbols defined once in defs and stamped via use references
    - Authentic shell fragments: apt, ls -la, grep, uname -a, systemctl, chmod, and a /-rooted fs tree
    - Three opacity tiers (0.05 / 0.075 / 0.10) so the field has quiet depth instead of a flat wash
    - Single global dimmer: the opacity attribute on g#watermark scales the whole field at once
    - Stroke-only iconography on a soft radial charcoal gradient - no fills fighting the background
    - System monospace font stack; no webfonts, no rasters, no external references
    - Companion piece to termux_constellation - same palette family, opposite energy

✒ Usage Instructions:
    Use as a desktop wallpaper, app backdrop, hero underlay, or slide
    background. To dim or brighten the entire field, edit the opacity
    attribute on <g id="watermark"> (default 1; try 0.5 for barely-there,
    matching the reference mock). To retint, change the two stroke/fill
    colors: #6b5d4f (elements) and the background gradient stops.

✒ Examples:
    - Wallpaper export:        cairosvg linux_scatter_field.svg -o wall.png -W 3840
    - CSS backdrop:            body { background: #12161b url('linux_scatter_field.svg') center/cover; }
    - Hero underlay:           place content in a sibling layer above the SVG
    - Dimmer to 50%:           <g id="watermark" opacity="0.5">
    - Inkscape remix:          every icon is a defs symbol - restamp freely with clones
    - OBS / stream scene:      drop in as a bottom image source

✒ Other Important Information:
    - Dependencies: none (self-contained SVG 1.1)
    - Compatible platforms: all modern browsers, Inkscape, librsvg/cairosvg,
      Android WebView, VS Code preview, GNOME/KDE wallpaper via PNG export
    - Limitations: monospace metrics vary slightly per system font; the
      scatter is composed for 16:9 - heavy crops to other ratios may cut
      text fragments mid-line
- - - - - - - - -
-->
<svg viewBox="0 0 1920 1080" xmlns="http://www.w3.org/2000/svg" xmlns:xlink="http://www.w3.org/1999/xlink" role="img" aria-labelledby="lsf-title">
  <title id="lsf-title">Linux Scatter Field (light) - faint terminal and Linux iconography on dark charcoal</title>

  <defs>
    <radialGradient id="field" cx="50%" cy="42%" r="85%">
      <stop offset="0%" stop-color="#f7f2e7"/>
      <stop offset="65%" stop-color="#f2ebdc"/>
      <stop offset="100%" stop-color="#ece3d0"/>
    </radialGradient>

    <!-- ============ line-art symbols (stroke inherited) ============ -->
    <g id="i-tux" fill="none" stroke-width="2.4" stroke-linecap="round" stroke-linejoin="round">
      <path d="M 0 -34 C 17 -34 21 -13 21 5 C 21 22 11 32 0 32 C -11 32 -21 22 -21 5 C -21 -13 -17 -34 0 -34 Z"/>
      <path d="M 0 -12 C 11 -12 14 -1 14 10 C 14 21 7 27 0 27 C -7 27 -14 21 -14 10 C -14 -1 -11 -12 0 -12 Z"/>
      <circle cx="-7" cy="-21" r="2" fill="currentColor" stroke="none"/>
      <circle cx="7" cy="-21" r="2" fill="currentColor" stroke="none"/>
      <path d="M -5 -14 L 5 -14 L 0 -8 Z"/>
      <path d="M -14 32 h 10 l -5 6 z M 4 32 h 10 l -5 6 z"/>
    </g>

    <g id="i-folder" fill="none" stroke-width="2.4" stroke-linejoin="round">
      <path d="M -24 -14 h 15 l 6 7 h 27 v 24 a 3 3 0 0 1 -3 3 h -42 a 3 3 0 0 1 -3 -3 z"/>
    </g>

    <g id="i-folder-open" fill="none" stroke-width="2.4" stroke-linejoin="round">
      <path d="M -24 -14 h 14 l 6 7 h 22 v 6 h -34 l -8 21 a 3 3 0 0 1 -3 -3 z"/>
      <path d="M -22 -1 h 46 l -8 21 h -46 z"/>
    </g>

    <g id="i-cloud" fill="none" stroke-width="2.4" stroke-linecap="round" stroke-linejoin="round">
      <g transform="translate(-27 -33) scale(2.25)"><path d="M18 10h-1.26A8 8 0 1 0 9 20h9a5 5 0 0 0 0-10z"/></g>
    </g>

    <g id="i-termwin" fill="none" stroke-width="2.4" stroke-linecap="round" stroke-linejoin="round">
      <rect x="-30" y="-22" width="60" height="44" rx="5"/>
      <line x1="-30" y1="-11" x2="30" y2="-11"/>
      <path d="M -20 -2 L -12 5 L -20 12"/>
      <line x1="-6" y1="12" x2="6" y2="12"/>
    </g>

    <g id="i-gear" fill="none" stroke-width="2.4" stroke-linecap="round">
      <line x1="0" y1="-17" x2="0" y2="-24"/><line x1="0" y1="17" x2="0" y2="24"/>
      <line x1="-17" y1="0" x2="-24" y2="0"/><line x1="17" y1="0" x2="24" y2="0"/>
      <line x1="-12" y1="-12" x2="-17" y2="-17"/><line x1="12" y1="-12" x2="17" y2="-17"/>
      <line x1="-12" y1="12" x2="-17" y2="17"/><line x1="12" y1="12" x2="17" y2="17"/>
      <circle r="16"/><circle r="6"/>
    </g>

    <g id="i-hexes" fill="none" stroke-width="2.2" stroke-linejoin="round">
      <path d="M 12 -11 L 6 -0.6 L -6 -0.6 L -12 -11 L -6 -21.4 L 6 -21.4 Z"/>
      <path d="M 2 13 L -4 23.4 L -16 23.4 L -22 13 L -16 2.6 L -4 2.6 Z"/>
      <path d="M 22 13 L 16 23.4 L 4 23.4 L -2 13 L 4 2.6 L 16 2.6 Z"/>
    </g>

    <g id="i-dots">
      <g fill="currentColor">
        <circle cx="-24" cy="-6" r="2.2"/><circle cx="-12" cy="-6" r="2.2"/><circle cx="0" cy="-6" r="2.2"/><circle cx="12" cy="-6" r="2.2"/><circle cx="24" cy="-6" r="2.2"/>
        <circle cx="-24" cy="6" r="2.2"/><circle cx="0" cy="6" r="2.2"/><circle cx="12" cy="6" r="2.2"/>
      </g>
    </g>

    <g id="i-ast" stroke-width="2.6" stroke-linecap="round">
      <line x1="0" y1="-12" x2="0" y2="12"/>
      <line x1="-10.4" y1="-6" x2="10.4" y2="6"/>
      <line x1="-10.4" y1="6" x2="10.4" y2="-6"/>
    </g>

    <g id="i-code" fill="none" stroke-width="2.8" stroke-linecap="round" stroke-linejoin="round">
      <path d="M -12 -13 L -24 0 L -12 13"/>
      <path d="M 12 -13 L 24 0 L 12 13"/>
      <line x1="5" y1="-17" x2="-5" y2="17"/>
    </g>

    <g id="i-chev" fill="none" stroke-width="2.8" stroke-linecap="round" stroke-linejoin="round">
      <path d="M -10 -11 L -20 0 L -10 11"/>
      <path d="M 10 -11 L 20 0 L 10 11"/>
    </g>

    <g id="i-server" fill="none" stroke-width="2.2" stroke-linejoin="round">
      <rect x="-24" y="-24" width="48" height="13" rx="2"/>
      <rect x="-24" y="-6" width="48" height="13" rx="2"/>
      <rect x="-24" y="12" width="48" height="13" rx="2"/>
      <g fill="currentColor" stroke="none">
        <circle cx="-17" cy="-17.5" r="1.7"/><circle cx="-10" cy="-17.5" r="1.7"/><circle cx="-3" cy="-17.5" r="1.7"/>
        <circle cx="-17" cy="0.5" r="1.7"/><circle cx="-10" cy="0.5" r="1.7"/><circle cx="-3" cy="0.5" r="1.7"/>
        <circle cx="-17" cy="18.5" r="1.7"/><circle cx="-10" cy="18.5" r="1.7"/><circle cx="-3" cy="18.5" r="1.7"/>
      </g>
    </g>

    <g id="i-db" fill="none" stroke-width="2.4" stroke-linecap="round">
      <ellipse cx="0" cy="-16" rx="18" ry="7"/>
      <path d="M -18 -16 V 16 A 18 7 0 0 0 18 16 V -16"/>
      <path d="M -18 0 A 18 7 0 0 0 18 0"/>
    </g>

    <g id="i-chip" fill="none" stroke-width="2.2" stroke-linecap="round" stroke-linejoin="round">
      <rect x="-15" y="-15" width="30" height="30" rx="3"/>
      <rect x="-7" y="-7" width="14" height="14"/>
      <g>
        <line x1="-8" y1="-15" x2="-8" y2="-22"/><line x1="0" y1="-15" x2="0" y2="-22"/><line x1="8" y1="-15" x2="8" y2="-22"/>
        <line x1="-8" y1="15" x2="-8" y2="22"/><line x1="0" y1="15" x2="0" y2="22"/><line x1="8" y1="15" x2="8" y2="22"/>
        <line x1="-15" y1="-8" x2="-22" y2="-8"/><line x1="-15" y1="0" x2="-22" y2="0"/><line x1="-15" y1="8" x2="-22" y2="8"/>
        <line x1="15" y1="-8" x2="22" y2="-8"/><line x1="15" y1="0" x2="22" y2="0"/><line x1="15" y1="8" x2="22" y2="8"/>
      </g>
    </g>

    <g id="i-globe" fill="none" stroke-width="2.2">
      <circle r="18"/>
      <ellipse rx="8" ry="18"/>
      <line x1="-18" y1="0" x2="18" y2="0"/>
    </g>

    <g id="i-lock" fill="none" stroke-width="2.4" stroke-linecap="round" stroke-linejoin="round">
      <rect x="-13" y="-2" width="26" height="20" rx="3"/>
      <path d="M -7 -2 v -6 a 7 7 0 0 1 14 0 v 6"/>
      <circle cx="0" cy="8" r="2" fill="currentColor" stroke="none"/>
    </g>

    <g id="i-power" fill="none" stroke-width="2.4" stroke-linecap="round">
      <path d="M -9 -12 a 15 15 0 1 0 18 0"/>
      <line x1="0" y1="-18" x2="0" y2="-4"/>
    </g>

    <g id="i-spiral" fill="none" stroke-width="2.4" stroke-linecap="round">
      <path d="M 2 -1 q 7 -1 7 6 q 0 9 -11 9 q -13 0 -13 -14 q 0 -16 18 -16 q 20 0 20 21"/>
    </g>

    <g id="i-git" fill="none" stroke-width="2.4" stroke-linecap="round">
      <circle cx="0" cy="-15" r="4.5"/>
      <circle cx="-13" cy="12" r="4.5"/>
      <circle cx="13" cy="12" r="4.5"/>
      <path d="M -3 -12 L -11 8 M 3 -12 L 11 8"/>
    </g>

    <g id="i-pkg" fill="none" stroke-width="2.4" stroke-linejoin="round" stroke-linecap="round">
      <path d="M 0 -21 L 18 -12 V 10 L 0 19 L -18 10 V -12 Z"/>
      <path d="M -18 -12 L 0 -3 L 18 -12"/>
      <path d="M 0 -3 V 19"/>
    </g>

    <g id="i-shelllines" fill="none" stroke-width="2.4" stroke-linecap="round">
      <line x1="-18" y1="-8" x2="6" y2="-8"/>
      <line x1="-18" y1="0" x2="18" y2="0"/>
      <line x1="-18" y1="8" x2="-2" y2="8"/>
    </g>
  </defs>

  <!-- ============================ field ============================ -->
  <rect width="1920" height="1080" fill="url(#field)"/>

  <!-- global dimmer: lower this one attribute to fade the whole layer -->
  <g id="watermark" opacity="1" color="#6b5d4f" stroke="#6b5d4f" fill="#6b5d4f"
     font-family="ui-monospace, 'Cascadia Code', 'JetBrains Mono', Consolas, monospace">

    <!-- ============== text fragments ============== -->
    <g font-size="16" opacity="0.10" stroke="none">
      <text x="120" y="88">$ cd /usr/local/bin</text>
      <text x="120" y="112">$ sudo apt update</text>
      <text x="120" y="136">$ sudo apt upgrade</text>
    </g>

    <g font-size="16" opacity="0.075" stroke="none">
      <text x="1350" y="182"># systemctl status sshd</text>
      <text x="1372" y="206">active (running)</text>
    </g>

    <g font-size="16" opacity="0.10" stroke="none">
      <text x="560" y="470">$ ls -la</text>
      <text x="560" y="496">drwxr-xr-x  2 user user 4096 May 12 10:15 projects</text>
      <text x="560" y="522">-rw-r--r--  1 user user 1234 May 12 09:42 notes.txt</text>
    </g>

    <g font-size="16" opacity="0.075" stroke="none">
      <text x="1258" y="688">$ grep -r "main()" ./</text>
      <text x="1258" y="712">./src/main.c:int main() {</text>
    </g>

    <g font-size="16" opacity="0.10" stroke="none">
      <text x="118" y="862">$ uname -a</text>
      <text x="118" y="886">Linux kernel 6.x.x</text>
      <text x="118" y="910">x86_64 GNU/Linux</text>
    </g>

    <g font-size="16" opacity="0.075" stroke="none">
      <text x="905" y="252">$ chmod +x forge.sh</text>
    </g>

    <g font-size="16" opacity="0.06" stroke="none">
      <text x="1560" y="520">$ pkg install python</text>
    </g>

    <!-- filesystem tree -->
    <g opacity="0.09">
      <g font-size="16" stroke="none">
        <text x="96" y="252">/</text>
        <text x="150" y="292">bin</text>
        <text x="150" y="322">etc</text>
        <text x="150" y="352">home</text>
        <text x="150" y="382">usr</text>
        <text x="150" y="412">var</text>
      </g>
      <g fill="none" stroke-width="1.8" stroke-linecap="round">
        <path d="M 102 262 V 406 M 102 286 h 38 M 102 316 h 38 M 102 346 h 38 M 102 376 h 38 M 102 406 h 38"/>
      </g>
    </g>

    <!-- ============== glyph accents (font-based) ============== -->
    <g stroke="none" font-size="42">
      <text x="666" y="128" opacity="0.075">&gt;..</text>
      <text x="1272" y="308" opacity="0.09">{ }</text>
      <text x="74" y="660" opacity="0.075">[ ]</text>
      <text x="228" y="700" opacity="0.09">{;}</text>
      <text x="778" y="348" opacity="0.10">$</text>
      <text x="536" y="678" opacity="0.09">$ _</text>
      <text x="380" y="978" opacity="0.10">&gt;_</text>
      <text x="676" y="952" opacity="0.09">~</text>
      <text x="818" y="78" opacity="0.075">+</text>
      <text x="1462" y="94" opacity="0.075">/*</text>
      <text x="366" y="672" opacity="0.06">|</text>
      <text x="1740" y="452" opacity="0.075">#!</text>
      <text x="1042" y="792" opacity="0.075">&lt;&gt;</text>
      <text x="52" y="140" opacity="0.06">&gt;</text>
      <text x="1876" y="668" opacity="0.075">;</text>
    </g>

    <!-- ============== icon scatter ============== -->
    <!-- band 1 : top -->
    <use xlink:href="#i-folder" transform="translate(548 96) rotate(-4)" opacity="0.09"/>
    <use xlink:href="#i-dots" transform="translate(1000 74) rotate(6)" opacity="0.075"/>
    <use xlink:href="#i-tux" transform="translate(1190 108) scale(0.85) rotate(5)" opacity="0.09"/>
    <use xlink:href="#i-dots" transform="translate(1836 82) rotate(-8) scale(0.8)" opacity="0.06"/>
    <use xlink:href="#i-pkg" transform="translate(1668 172) rotate(8)" opacity="0.09"/>
    <use xlink:href="#i-cloud" transform="translate(846 180)" opacity="0.10"/>
    <use xlink:href="#i-termwin" transform="translate(628 224) rotate(-3)" opacity="0.10"/>
    <use xlink:href="#i-code" transform="translate(1030 186) rotate(4)" opacity="0.10"/>
    <use xlink:href="#i-spiral" transform="translate(302 300) rotate(-10)" opacity="0.075"/>
    <use xlink:href="#i-git" transform="translate(1560 300) rotate(6)" opacity="0.075"/>
    <use xlink:href="#i-power" transform="translate(1814 306) scale(1.1)" opacity="0.09"/>

    <!-- band 2 : upper middle -->
    <use xlink:href="#i-dots" transform="translate(928 296) rotate(3) scale(0.9)" opacity="0.06"/>
    <use xlink:href="#i-gear" transform="translate(1134 366) rotate(12)" opacity="0.10"/>
    <use xlink:href="#i-tux" transform="translate(368 424) scale(1.5)" opacity="0.10"/>
    <use xlink:href="#i-globe" transform="translate(1470 372) scale(1.05) rotate(-6)" opacity="0.09"/>
    <use xlink:href="#i-server" transform="translate(1662 408) rotate(-3)" opacity="0.10"/>
    <use xlink:href="#i-ast" transform="translate(612 392) rotate(14)" opacity="0.075"/>
    <use xlink:href="#i-hexes" transform="translate(102 496) rotate(-6)" opacity="0.09"/>
    <use xlink:href="#i-db" transform="translate(1826 552) rotate(4)" opacity="0.10"/>
    <use xlink:href="#i-ast" transform="translate(300 560) rotate(-8) scale(0.8)" opacity="0.06"/>
    <use xlink:href="#i-dots" transform="translate(1258 520) scale(0.85) rotate(10)" opacity="0.06"/>

    <!-- band 3 : lower middle -->
    <use xlink:href="#i-gear" transform="translate(790 756) rotate(-14) scale(0.8)" opacity="0.075"/>
    <use xlink:href="#i-folder" transform="translate(922 668) rotate(5)" opacity="0.09"/>
    <use xlink:href="#i-folder-open" transform="translate(1118 650) rotate(-4)" opacity="0.09"/>
    <use xlink:href="#i-chip" transform="translate(1602 600) rotate(7)" opacity="0.10"/>
    <use xlink:href="#i-ast" transform="translate(1762 676) rotate(20) scale(0.85)" opacity="0.075"/>
    <use xlink:href="#i-ast" transform="translate(648 742) rotate(-12)" opacity="0.09"/>
    <use xlink:href="#i-git" transform="translate(452 566) rotate(-8) scale(0.9)" opacity="0.06"/>
    <use xlink:href="#i-chev" transform="translate(240 560) rotate(4)" opacity="0.075"/>

    <!-- band 4 : bottom -->
    <use xlink:href="#i-lock" transform="translate(534 846) rotate(-6)" opacity="0.09"/>
    <use xlink:href="#i-globe" transform="translate(890 892) rotate(8)" opacity="0.10"/>
    <use xlink:href="#i-dots" transform="translate(1206 862) rotate(-5)" opacity="0.075"/>
    <use xlink:href="#i-power" transform="translate(1392 838) rotate(-4)" opacity="0.09"/>
    <use xlink:href="#i-spiral" transform="translate(1622 802) rotate(14)" opacity="0.09"/>
    <use xlink:href="#i-server" transform="translate(1812 902) scale(0.95) rotate(3)" opacity="0.09"/>
    <use xlink:href="#i-tux" transform="translate(1540 968) scale(0.8) rotate(-6)" opacity="0.075"/>
    <use xlink:href="#i-gear" transform="translate(1244 1002) rotate(24) scale(0.9)" opacity="0.09"/>
    <use xlink:href="#i-folder" transform="translate(742 1022) rotate(-7) scale(0.9)" opacity="0.075"/>
    <use xlink:href="#i-ast" transform="translate(936 1032) rotate(8)" opacity="0.075"/>
    <use xlink:href="#i-shelllines" transform="translate(552 1002) rotate(-3)" opacity="0.09"/>
    <use xlink:href="#i-dots" transform="translate(628 884) scale(0.75) rotate(12)" opacity="0.06"/>
    <use xlink:href="#i-cloud" transform="translate(300 990) scale(0.8) rotate(-5)" opacity="0.06"/>
    <use xlink:href="#i-chev" transform="translate(1064 962) rotate(-6) scale(0.85)" opacity="0.06"/>
    <use xlink:href="#i-hexes" transform="translate(1730 1010) scale(0.8) rotate(9)" opacity="0.06"/>
  </g>
</svg>
